<?xml version="1.0" encoding="UTF-8"?>
<svg xmlns="http://www.w3.org/2000/svg" width="1000" height="1000" viewBox="0 0 1000 1000">
  <title>Master symbol H5</title>
  <desc>Candidate master hieroglyph redrawn from the uploaded five-glyph reference strip as the primary source, preserving the thick on-screen style and cleaned for vector/Blender use.</desc>
  <g id="glyph" fill="#ffffff">
    <path d="M223.4 126.5 L222.1 127.1 L221.5 127.8 L220.8 129.1 L220.8 136.2 L216.9 139.5 L214.4 142.0 L214.4 156.3 L216.9 158.9 L220.8 162.2 L220.8 169.3 L223.4 171.9 L224.1 171.9 L227.3 175.1 L227.3 182.3 L229.9 184.8 L230.6 184.8 L233.8 188.1 L233.8 195.2 L236.4 197.8 L237.0 197.8 L240.3 201.7 L242.9 204.3 L243.5 204.3 L246.8 207.5 L246.8 214.7 L249.4 217.3 L250.0 217.3 L253.3 220.5 L253.3 227.6 L255.9 230.2 L256.5 230.2 L259.7 233.5 L259.7 240.6 L262.3 243.2 L263.0 243.2 L266.2 247.1 L268.8 249.7 L269.5 249.7 L272.7 252.9 L272.7 260.1 L275.3 262.7 L276.0 262.7 L279.2 265.9 L279.2 273.0 L281.8 275.6 L282.4 275.6 L285.7 278.9 L285.7 286.0 L288.3 288.6 L288.9 288.6 L292.2 292.5 L294.8 295.1 L295.4 295.1 L298.7 298.3 L298.7 305.5 L301.2 308.1 L301.9 308.1 L305.1 311.3 L305.1 318.4 L307.7 321.0 L308.4 321.0 L311.6 324.3 L311.6 331.4 L314.2 334.0 L314.9 334.0 L318.1 337.9 L320.7 340.5 L321.3 340.5 L324.6 343.7 L324.6 350.9 L327.2 353.4 L327.8 353.4 L331.1 356.7 L331.1 363.8 L333.7 366.4 L334.3 366.4 L337.6 369.7 L337.6 376.8 L340.2 379.4 L340.8 379.4 L344.0 383.3 L346.6 385.9 L347.3 385.9 L350.5 389.1 L350.5 396.2 L353.1 398.8 L353.8 398.8 L357.0 402.1 L357.0 409.2 L359.6 411.8 L360.3 411.8 L363.5 415.1 L363.5 422.2 L366.1 424.8 L366.7 424.8 L370.0 428.7 L372.6 431.3 L373.2 431.3 L376.5 434.5 L376.5 441.6 L379.1 444.2 L379.7 444.2 L383.0 447.5 L383.0 454.6 L385.5 457.2 L386.2 457.2 L389.4 460.4 L389.4 467.6 L392.0 470.2 L392.7 470.2 L395.9 473.4 L395.9 480.5 L398.5 483.1 L399.2 483.1 L402.4 486.4 L402.4 493.5 L405.0 496.1 L405.6 496.1 L408.9 499.4 L408.9 506.5 L411.5 509.1 L412.1 509.1 L415.4 512.3 L415.4 519.5 L418.0 522.0 L418.6 522.0 L421.9 525.9 L424.5 528.5 L428.3 532.4 L430.9 535.0 L434.8 538.9 L437.4 541.5 L441.3 545.4 L443.9 548.0 L447.8 551.9 L450.4 554.5 L454.3 558.4 L456.9 561.0 L460.8 564.8 L463.4 567.4 L467.3 571.3 L469.8 573.9 L473.7 577.8 L476.3 580.4 L480.2 584.3 L482.8 586.9 L486.7 590.8 L489.3 593.4 L489.9 593.4 L493.2 596.6 L493.2 603.8 L495.8 606.3 L496.4 606.3 L499.7 610.2 L502.3 612.8 L506.2 616.7 L508.8 619.3 L512.6 623.2 L515.2 625.8 L519.1 629.7 L521.7 632.3 L522.4 632.3 L525.6 635.5 L525.6 642.7 L528.2 645.3 L528.9 645.3 L532.1 649.1 L534.7 651.7 L538.6 655.6 L541.2 658.2 L545.1 662.1 L547.7 664.7 L551.6 668.6 L554.1 671.2 L554.8 671.2 L558.0 674.4 L558.0 681.6 L560.6 684.2 L561.3 684.2 L564.5 688.1 L567.1 690.6 L571.0 694.5 L573.6 697.1 L574.2 697.1 L577.5 700.4 L577.5 739.3 L574.2 742.5 L573.6 742.5 L571.0 745.1 L571.0 758.7 L567.8 762.0 L567.1 762.0 L564.5 764.6 L560.6 768.5 L558.0 771.1 L554.1 774.9 L551.6 777.5 L548.3 781.4 L547.7 781.4 L545.1 784.0 L545.1 791.2 L541.8 794.4 L541.2 794.4 L538.6 797.0 L534.7 800.9 L532.1 803.5 L528.2 807.4 L525.6 810.0 L522.4 813.9 L521.7 813.9 L519.1 816.5 L519.1 863.1 L521.7 865.7 L522.4 865.7 L525.6 869.0 L525.6 869.6 L528.2 872.2 L530.2 872.9 L534.0 872.9 L536.0 872.2 L538.6 869.6 L538.6 869.0 L541.8 865.7 L555.4 865.7 L558.0 863.1 L561.3 859.2 L568.4 859.2 L571.0 856.7 L571.0 856.0 L574.9 852.8 L577.5 850.2 L580.7 846.3 L581.4 846.3 L584.0 843.7 L584.0 836.6 L587.2 833.3 L587.9 833.3 L590.5 830.7 L593.7 826.8 L594.4 826.8 L596.9 824.2 L596.9 817.1 L600.2 813.9 L600.8 813.9 L603.4 811.3 L606.7 807.4 L607.3 807.4 L609.9 804.8 L609.9 797.6 L613.2 794.4 L613.8 794.4 L616.4 791.8 L619.6 787.9 L620.3 787.9 L622.9 785.3 L622.9 778.2 L626.8 774.9 L629.4 772.4 L629.4 758.7 L632.6 755.5 L633.3 755.5 L635.9 752.9 L635.9 745.8 L639.1 742.5 L639.7 742.5 L642.3 739.9 L642.3 732.8 L645.6 729.6 L646.2 729.6 L648.8 727.0 L652.7 723.1 L655.3 720.5 L655.3 719.8 L658.5 716.6 L723.4 716.6 L726.6 719.8 L726.6 720.5 L729.2 723.1 L742.8 723.1 L746.1 727.0 L748.7 729.6 L769.4 729.6 L772.0 727.0 L775.3 723.1 L782.4 723.1 L783.7 722.4 L784.4 721.8 L785.0 720.5 L785.0 686.8 L784.4 685.5 L783.7 684.8 L782.4 684.2 L775.3 684.2 L772.0 680.9 L772.0 680.3 L769.4 677.7 L762.3 677.7 L759.1 673.8 L756.5 671.2 L722.7 671.2 L720.2 673.8 L716.9 677.7 L639.1 677.7 L635.9 674.4 L635.9 673.8 L633.3 671.2 L626.1 671.2 L622.9 668.0 L622.9 667.3 L620.3 664.7 L616.4 661.5 L616.4 660.8 L613.8 658.2 L606.7 658.2 L603.4 655.0 L603.4 654.3 L600.8 651.7 L596.9 647.8 L594.4 645.3 L590.5 641.4 L587.9 638.8 L584.0 634.9 L581.4 632.3 L577.5 628.4 L574.9 625.8 L571.0 621.9 L568.4 619.3 L564.5 615.4 L561.9 612.8 L558.0 608.9 L555.4 606.3 L551.6 602.5 L549.0 599.9 L548.3 599.9 L545.1 596.6 L545.1 589.5 L542.5 586.9 L541.8 586.9 L538.6 583.0 L536.0 580.4 L532.1 576.5 L529.5 573.9 L525.6 570.0 L523.0 567.4 L519.1 563.5 L516.5 561.0 L512.6 557.1 L510.1 554.5 L506.2 550.6 L503.6 548.0 L499.7 544.1 L497.1 541.5 L493.2 537.6 L490.6 535.0 L489.9 535.0 L486.7 531.8 L486.7 524.6 L484.1 522.0 L483.5 522.0 L480.2 518.8 L480.2 505.2 L477.6 502.6 L473.7 499.4 L473.7 492.2 L471.1 489.6 L470.5 489.6 L467.3 486.4 L467.3 479.2 L464.7 476.7 L464.0 476.7 L460.8 473.4 L460.8 466.3 L458.2 463.7 L457.5 463.7 L454.3 459.8 L451.7 457.2 L451.0 457.2 L447.8 454.0 L447.8 446.8 L445.2 444.2 L444.6 444.2 L441.3 440.3 L438.7 437.7 L434.8 433.9 L432.2 431.3 L428.3 428.0 L428.3 427.4 L425.8 424.8 L418.6 424.8 L417.3 424.1 L416.0 422.8 L415.4 421.5 L415.4 414.4 L412.8 411.8 L412.1 411.8 L408.9 408.6 L408.9 401.4 L406.3 398.8 L405.6 398.8 L402.4 395.6 L402.4 388.5 L399.8 385.9 L399.2 385.9 L395.9 382.0 L393.3 379.4 L392.7 379.4 L389.4 376.1 L389.4 369.0 L386.8 366.4 L386.2 366.4 L383.0 363.2 L383.0 356.0 L380.4 353.4 L379.7 353.4 L376.5 350.2 L376.5 343.1 L373.9 340.5 L373.2 340.5 L370.0 337.2 L370.0 330.1 L367.4 327.5 L366.7 327.5 L363.5 324.3 L363.5 317.1 L360.9 314.5 L360.3 314.5 L357.0 310.6 L354.4 308.1 L353.8 308.1 L350.5 304.8 L350.5 297.7 L347.9 295.1 L347.3 295.1 L344.0 291.8 L344.0 284.7 L341.5 282.1 L340.8 282.1 L337.6 278.9 L337.6 271.7 L335.0 269.1 L334.3 269.1 L331.1 265.9 L331.1 258.8 L328.5 256.2 L327.8 256.2 L324.6 252.9 L324.6 245.8 L322.0 243.2 L321.3 243.2 L318.1 239.3 L315.5 236.7 L314.9 236.7 L311.6 233.5 L311.6 226.3 L309.0 223.8 L308.4 223.8 L305.1 220.5 L305.1 213.4 L302.5 210.8 L301.9 210.8 L298.7 207.5 L298.7 200.4 L296.1 197.8 L295.4 197.8 L292.2 194.6 L292.2 187.4 L289.6 184.8 L288.9 184.8 L285.7 181.6 L285.7 174.5 L283.1 171.9 L282.4 171.9 L279.2 168.6 L279.2 161.5 L276.6 158.9 L276.0 158.9 L272.7 155.0 L270.1 152.4 L269.5 152.4 L266.2 149.2 L266.2 142.0 L263.6 139.5 L263.0 139.5 L259.7 135.6 L257.2 133.0 L253.3 129.7 L253.3 129.1 L250.7 126.5 Z" fill-rule="evenodd"/>
  </g>
</svg>
