<?xml version="1.0" encoding="UTF-8"?>
<svg xmlns="http://www.w3.org/2000/svg" width="1000" height="1000" viewBox="0 0 1000 1000">
  <title>Color variant N3 d4-5</title>
  <desc>Generated color variant for N3 in d4-5 group.</desc>
  <rect x="0" y="0" width="1000" height="1000" fill="#FFFFFF"/>
  <g id="glyph" fill="#000000" >
    <path d="M443.53413654618475 534.0829986613119C498.4738955823293 534.0829986613119 501.52610441767064 534.0829986613119 526.9611780455155 541.2048192771085C574.7791164658634 554.4310575635877 605.301204819277 596.1445783132531 605.301204819277 649.04953145917C605.301204819277 713.1459170013387 560.5354752342704 757.9116465863453 498.4738955823293 757.9116465863453C431.32530120481925 757.9116465863453 394.69879518072287 719.2503346720214 390.6291834002677 644.9799196787149H252.2623828647925C253.2797858099063 789.4511378848729 346.8808567603748 880.0 495.4216867469879 880.0C649.04953145917 880.0 747.7376171352075 789.4511378848729 747.7376171352075 649.04953145917C747.7376171352075 564.6050870147255 711.1111111111111 509.665327978581 629.718875502008 469.98661311914327C695.8500669344043 428.2730923694779 724.3373493975903 382.4899598393574 724.3373493975903 316.3587684069612C724.3373493975903 196.30522088353416 634.805890227577 120.0 495.4216867469879 120.0C390.6291834002677 120.0 310.2543507362784 165.7831325301205 278.714859437751 244.12315930388218C265.48862115127173 278.714859437751 261.4190093708166 302.1151271753681 261.4190093708166 362.1419009370817H393.6813922356091C394.69879518072287 323.4805890227577 397.75100401606426 304.14993306559575 404.8728246318608 285.8366800535475C418.09906291834 254.2971887550201 450.65595716198123 234.96653279785812 492.3694779116466 234.96653279785812C549.3440428380187 234.96653279785812 581.90093708166 269.55823293172693 581.90093708166 329.5850066934404C581.90093708166 402.8380187416332 540.1874163319947 438.4471218206158 455.7429718875502 438.4471218206158H443.53413654618475Z" fill-rule="evenodd"/>
  </g>
</svg>
