<?xml version="1.0" encoding="UTF-8"?>
<svg xmlns="http://www.w3.org/2000/svg" width="1000" height="1000" viewBox="0 0 1000 1000">
  <title>Character H1</title>
  <desc>Normalized full-character artwork generated from source-of-truth master symbols.</desc>
  <g id="glyph" fill="#ffffff">
    <path d="M523.9 125.6 L522.2 127.3 L521.1 129.6 L519.4 131.3 L496.3 131.3 L494.1 133.5 L491.3 136.9 L479.5 136.9 L477.2 139.1 L477.2 139.7 L473.8 142.5 L471.6 144.8 L468.2 148.1 L466.0 150.4 L462.6 153.8 L460.3 156.0 L457.5 159.4 L457.0 159.4 L454.7 161.6 L454.7 167.8 L451.3 170.6 L449.1 172.9 L449.1 246.6 L445.7 249.4 L443.5 251.6 L443.5 572.8 L440.1 575.7 L437.8 577.9 L437.8 623.5 L434.5 626.3 L432.2 628.5 L432.2 674.1 L428.8 676.9 L426.6 679.2 L426.6 713.5 L423.8 716.3 L423.2 716.3 L421.0 718.5 L421.0 747.2 L418.1 750.1 L417.6 750.1 L415.3 752.3 L415.3 764.1 L412.5 766.9 L412.0 766.9 L409.7 769.2 L409.7 781.0 L406.9 783.8 L406.3 783.8 L404.1 786.1 L404.1 797.9 L401.3 800.7 L400.7 800.7 L398.5 802.9 L398.5 814.7 L395.1 817.6 L392.8 819.8 L392.8 837.2 L389.5 840.1 L387.2 842.3 L387.2 854.7 L389.5 856.9 L390.0 856.9 L392.8 860.3 L395.1 862.6 L398.5 865.9 L400.7 868.2 L404.1 871.0 L404.1 871.6 L406.3 873.8 L424.3 873.8 L426.6 871.6 L429.4 868.2 L441.2 868.2 L443.5 865.9 L443.5 865.4 L446.8 862.6 L449.1 860.3 L452.5 856.9 L454.7 854.7 L457.5 851.3 L458.1 851.3 L460.3 849.1 L460.3 842.9 L463.7 840.1 L466.0 837.8 L466.0 826.0 L468.8 823.2 L469.3 823.2 L471.6 820.9 L471.6 809.1 L474.4 806.3 L475.0 806.3 L477.2 804.1 L477.2 792.2 L480.6 789.4 L482.8 787.2 L482.8 752.9 L486.2 750.1 L488.5 747.8 L488.5 707.9 L491.8 705.0 L494.1 702.8 L494.1 662.9 L497.5 660.0 L499.7 657.8 L499.7 623.5 L503.1 620.7 L505.3 618.4 L505.3 584.1 L508.7 581.3 L511.0 579.0 L511.0 218.4 L513.8 215.6 L514.3 215.6 L516.6 213.4 L516.6 201.6 L519.4 198.8 L520.0 198.8 L522.2 196.5 L522.2 195.9 L525.0 193.1 L541.9 193.1 L544.7 195.9 L544.7 196.5 L547.0 198.8 L550.3 202.1 L552.6 204.4 L553.2 204.4 L556.0 207.2 L556.0 319.7 L552.6 322.5 L550.3 324.8 L550.3 511.0 L547.0 513.8 L544.7 516.0 L544.7 606.6 L541.3 609.4 L539.1 611.7 L539.1 691.5 L539.7 692.7 L540.2 693.2 L541.3 693.8 L547.5 693.8 L550.3 697.2 L552.6 699.4 L593.1 699.4 L595.4 697.2 L595.4 696.6 L598.7 693.8 L601.0 691.5 L603.8 688.2 L604.4 688.2 L606.6 685.9 L606.6 572.8 L610.0 570.0 L612.2 567.8 L612.2 206.6 L610.0 204.4 L606.6 201.6 L606.6 195.4 L604.4 193.1 L603.8 193.1 L601.0 189.8 L598.7 187.5 L598.2 187.5 L595.4 184.7 L595.4 178.5 L593.1 176.3 L592.5 176.3 L589.7 172.9 L587.5 170.6 L584.1 167.3 L581.9 165.0 L578.5 161.6 L576.2 159.4 L572.8 156.0 L570.6 153.8 L567.2 150.4 L565.0 148.1 L561.6 145.3 L561.6 144.8 L559.3 142.5 L553.2 142.5 L550.3 139.7 L550.3 139.1 L548.1 136.9 L541.9 136.9 L539.1 134.1 L539.1 133.5 L536.8 131.3 L530.7 131.3 L529.0 129.6 L527.8 127.3 L526.2 125.6 Z" fill-rule="evenodd"/>
  </g>
</svg>
