<?xml version="1.0" encoding="UTF-8"?>
<svg xmlns="http://www.w3.org/2000/svg" width="1000" height="1000" viewBox="0 0 1000 1000">
  <title>Character H15</title>
  <desc>Normalized full-character artwork generated from source-of-truth master symbols.</desc>
  <g id="glyph" fill="#ffffff">
    <path d="M501.9 630.0 L500.0 631.9 L494.4 637.4 L492.6 639.3 L492.6 646.7 L491.6 648.6 L487.0 652.3 L485.1 654.1 L481.4 658.8 L478.6 659.7 L475.9 659.7 L473.1 658.8 L469.4 654.1 L467.5 652.3 L461.9 646.7 L460.1 644.9 L454.5 639.3 L452.6 637.4 L435.0 637.4 L433.1 639.3 L427.6 644.9 L425.7 646.7 L425.7 654.1 L424.8 656.0 L420.1 659.7 L418.3 661.6 L414.6 666.2 L411.8 667.1 L409.0 667.1 L406.2 666.2 L402.5 661.6 L400.6 659.7 L395.1 654.1 L393.2 652.3 L375.6 652.3 L373.7 654.1 L368.1 659.7 L366.3 661.6 L360.7 667.1 L358.9 669.0 L355.1 673.6 L352.4 674.6 L349.6 674.6 L346.8 673.6 L343.1 669.0 L341.2 667.1 L334.7 667.1 L331.9 666.2 L328.2 661.6 L326.4 659.7 L320.8 654.1 L318.9 652.3 L308.7 652.3 L306.9 654.1 L301.3 659.7 L299.4 661.6 L293.9 667.1 L292.0 669.0 L286.4 674.6 L284.6 676.4 L279.0 682.0 L277.1 683.9 L271.6 689.4 L269.7 691.3 L264.1 696.9 L262.3 698.7 L256.7 704.3 L254.9 706.1 L251.1 710.8 L248.4 711.7 L241.9 711.7 L240.0 713.6 L234.4 719.1 L232.6 721.0 L228.9 725.6 L226.1 726.6 L217.7 726.6 L217.7 747.9 L298.5 747.9 L299.4 744.2 L304.1 740.5 L305.9 738.6 L309.6 734.0 L312.4 733.1 L322.6 733.1 L325.4 734.0 L329.1 738.6 L331.0 740.5 L335.6 744.2 L336.6 747.9 L365.4 747.9 L366.3 744.2 L369.1 741.4 L371.9 740.5 L382.1 740.5 L384.9 741.4 L387.6 744.2 L388.6 747.9 L439.6 747.9 L440.6 744.2 L443.4 741.4 L446.1 740.5 L448.9 740.5 L451.7 741.4 L454.5 744.2 L455.4 747.9 L491.6 747.9 L492.6 744.2 L497.2 740.5 L499.1 738.6 L502.8 734.0 L505.6 733.1 L515.8 733.1 L518.6 734.0 L521.4 736.8 L522.3 738.6 L522.3 747.9 L565.9 747.9 L565.9 738.6 L566.9 736.8 L569.6 734.0 L572.4 733.1 L582.6 733.1 L585.4 734.0 L588.2 736.8 L589.1 738.6 L589.1 747.9 L603.1 747.9 L604.0 744.2 L608.6 740.5 L610.5 738.6 L616.1 733.1 L617.9 731.2 L621.6 726.6 L624.4 725.6 L634.6 725.6 L637.4 726.6 L640.2 729.4 L641.1 731.2 L641.1 738.6 L643.0 740.5 L675.5 740.5 L677.4 738.6 L682.9 733.1 L684.8 731.2 L688.5 726.6 L691.3 725.6 L708.9 725.6 L711.7 726.6 L714.5 729.4 L715.4 731.2 L715.4 738.6 L717.3 740.5 L721.9 744.2 L722.9 747.9 L744.2 747.9 L745.1 744.2 L747.9 741.4 L750.7 740.5 L772.1 740.5 L773.9 738.6 L773.9 713.6 L772.1 711.7 L766.5 706.1 L764.6 704.3 L759.1 698.7 L757.2 696.9 L752.6 693.1 L751.6 691.3 L751.6 683.9 L749.8 682.0 L744.2 676.4 L742.4 674.6 L736.8 669.0 L734.9 667.1 L729.4 661.6 L727.5 659.7 L721.9 654.1 L720.1 652.3 L715.4 648.6 L714.5 646.7 L714.5 639.3 L712.6 637.4 L702.4 637.4 L700.6 639.3 L696.9 643.9 L694.1 644.9 L687.6 644.9 L685.7 646.7 L680.1 652.3 L678.3 654.1 L672.7 659.7 L670.9 661.6 L670.9 669.0 L669.9 670.9 L667.1 673.6 L664.4 674.6 L661.6 674.6 L658.8 673.6 L655.1 669.0 L653.2 667.1 L647.6 661.6 L645.8 659.7 L640.2 654.1 L638.4 652.3 L635.6 652.3 L633.7 654.1 L628.1 659.7 L626.3 661.6 L620.7 667.1 L618.9 669.0 L615.1 673.6 L612.4 674.6 L602.1 674.6 L599.4 673.6 L596.6 670.9 L595.6 669.0 L595.6 661.6 L593.8 659.7 L588.2 654.1 L586.4 652.3 L580.8 646.7 L578.9 644.9 L573.4 639.3 L571.5 637.4 L568.7 637.4 L566.9 639.3 L561.3 644.9 L559.4 646.7 L553.9 652.3 L552.0 654.1 L548.3 658.8 L545.5 659.7 L535.3 659.7 L532.5 658.8 L529.7 656.0 L528.8 654.1 L528.8 646.7 L526.9 644.9 L521.4 639.3 L519.5 637.4 L513.0 637.4 L510.2 636.5 L506.5 631.9 L504.6 630.0 Z M442.4 444.3 L440.6 446.1 L435.0 451.7 L433.1 453.6 L427.6 459.1 L425.7 461.0 L420.1 466.6 L418.3 468.4 L414.6 473.1 L411.8 474.0 L409.0 474.0 L406.2 473.1 L402.5 468.4 L400.6 466.6 L395.1 461.0 L393.2 459.1 L387.6 453.6 L385.8 451.7 L375.6 451.7 L373.7 453.6 L368.1 459.1 L366.3 461.0 L360.7 466.6 L358.9 468.4 L353.3 474.0 L351.4 475.9 L351.4 483.3 L350.5 485.1 L347.7 487.9 L344.9 488.9 L334.7 488.9 L331.9 487.9 L328.2 483.3 L326.4 481.4 L321.7 477.7 L320.8 475.9 L320.8 468.4 L318.9 466.6 L308.7 466.6 L306.9 468.4 L303.1 473.1 L300.4 474.0 L293.9 474.0 L292.0 475.9 L288.3 480.5 L285.5 481.4 L271.6 481.4 L269.7 483.3 L269.7 490.7 L268.8 492.6 L264.1 496.3 L262.3 498.1 L262.3 505.6 L261.4 507.4 L256.7 511.1 L254.9 513.0 L254.9 520.4 L253.9 522.3 L249.3 526.0 L247.4 527.9 L247.4 542.7 L246.5 544.6 L243.7 547.4 L240.9 548.3 L234.4 548.3 L232.6 550.1 L232.6 560.4 L234.4 562.2 L240.0 567.8 L241.9 569.6 L281.8 569.6 L283.6 567.8 L289.2 562.2 L291.1 560.4 L296.6 554.8 L298.5 552.9 L304.1 547.4 L305.9 545.5 L309.6 540.9 L312.4 539.9 L315.2 539.9 L318.0 540.9 L320.8 543.6 L321.7 545.5 L321.7 552.9 L323.6 554.8 L329.1 560.4 L331.0 562.2 L336.6 567.8 L338.4 569.6 L348.6 569.6 L350.5 567.8 L350.5 560.4 L351.4 558.5 L354.2 555.7 L357.0 554.8 L363.5 554.8 L365.4 552.9 L369.1 548.3 L371.9 547.4 L374.6 547.4 L377.4 548.3 L381.1 552.9 L383.0 554.8 L388.6 560.4 L390.4 562.2 L396.0 567.8 L397.9 569.6 L422.9 569.6 L424.8 567.8 L430.4 562.2 L432.2 560.4 L437.8 554.8 L439.6 552.9 L443.4 548.3 L446.1 547.4 L448.9 547.4 L451.7 548.3 L455.4 552.9 L457.3 554.8 L462.9 560.4 L464.7 562.2 L470.3 567.8 L472.1 569.6 L482.4 569.6 L484.2 567.8 L489.8 562.2 L491.6 560.4 L497.2 554.8 L499.1 552.9 L504.6 547.4 L506.5 545.5 L510.2 540.9 L513.0 539.9 L515.8 539.9 L518.6 540.9 L521.4 543.6 L522.3 545.5 L522.3 552.9 L524.1 554.8 L529.7 560.4 L531.6 562.2 L534.4 562.2 L536.2 560.4 L541.8 554.8 L543.6 552.9 L543.6 545.5 L544.6 543.6 L549.2 539.9 L551.1 538.1 L554.8 533.4 L557.6 532.5 L560.4 532.5 L563.1 533.4 L566.9 538.1 L568.7 539.9 L573.4 543.6 L574.3 545.5 L574.3 552.9 L576.1 554.8 L581.7 560.4 L583.6 562.2 L590.1 562.2 L592.9 563.1 L596.6 567.8 L598.4 569.6 L623.5 569.6 L625.4 567.8 L630.9 562.2 L632.8 560.4 L638.4 554.8 L640.2 552.9 L643.9 548.3 L646.7 547.4 L649.5 547.4 L652.3 548.3 L656.0 552.9 L657.9 554.8 L663.4 560.4 L665.3 562.2 L670.9 567.8 L672.7 569.6 L682.9 569.6 L684.8 567.8 L690.4 562.2 L692.2 560.4 L692.2 552.9 L693.1 551.1 L695.9 548.3 L698.7 547.4 L701.5 547.4 L704.3 548.3 L708.0 552.9 L709.9 554.8 L716.4 554.8 L719.1 555.7 L722.9 560.4 L724.7 562.2 L730.3 567.8 L732.1 569.6 L738.6 569.6 L741.4 570.6 L745.1 575.2 L747.0 577.1 L781.4 577.1 L781.4 533.4 L779.5 532.5 L777.6 532.5 L773.9 527.9 L772.1 526.0 L767.4 522.3 L766.5 520.4 L766.5 513.0 L764.6 511.1 L760.0 507.4 L759.1 505.6 L759.1 498.1 L757.2 496.3 L752.6 492.6 L751.6 490.7 L751.6 483.3 L749.8 481.4 L744.2 475.9 L742.4 474.0 L737.7 470.3 L736.8 468.4 L736.8 461.0 L734.9 459.1 L729.4 453.6 L727.5 451.7 L709.9 451.7 L708.0 453.6 L702.4 459.1 L700.6 461.0 L695.0 466.6 L693.1 468.4 L687.6 474.0 L685.7 475.9 L682.0 480.5 L679.2 481.4 L661.6 481.4 L658.8 480.5 L655.1 475.9 L653.2 474.0 L647.6 468.4 L645.8 466.6 L640.2 461.0 L638.4 459.1 L620.7 459.1 L618.9 461.0 L613.3 466.6 L611.4 468.4 L605.9 474.0 L604.0 475.9 L600.3 480.5 L597.5 481.4 L594.7 481.4 L591.9 480.5 L589.1 477.7 L588.2 475.9 L588.2 461.0 L586.4 459.1 L580.8 453.6 L578.9 451.7 L568.7 451.7 L566.9 453.6 L561.3 459.1 L559.4 461.0 L553.9 466.6 L552.0 468.4 L546.4 474.0 L544.6 475.9 L540.9 480.5 L538.1 481.4 L535.3 481.4 L532.5 480.5 L528.8 475.9 L526.9 474.0 L522.3 470.3 L521.4 468.4 L521.4 461.0 L519.5 459.1 L513.0 459.1 L510.2 458.2 L506.5 453.6 L504.6 451.7 L501.9 451.7 L500.0 453.6 L494.4 459.1 L492.6 461.0 L492.6 468.4 L491.6 470.3 L488.9 473.1 L486.1 474.0 L475.9 474.0 L473.1 473.1 L469.4 468.4 L467.5 466.6 L462.9 462.9 L461.9 461.0 L461.9 453.6 L460.1 451.7 L454.5 446.1 L452.6 444.3 Z M425.7 251.1 L425.7 267.9 L424.8 269.7 L420.1 273.4 L418.3 275.3 L414.6 279.9 L411.8 280.9 L401.6 280.9 L398.8 279.9 L395.1 275.3 L393.2 273.4 L388.6 269.7 L387.6 267.9 L387.6 260.4 L385.8 258.6 L383.0 258.6 L381.1 260.4 L377.4 265.1 L374.6 266.0 L368.1 266.0 L366.3 267.9 L360.7 273.4 L358.9 275.3 L358.9 282.7 L357.9 284.6 L353.3 288.3 L351.4 290.1 L347.7 294.8 L344.9 295.7 L334.7 295.7 L331.9 294.8 L328.2 290.1 L326.4 288.3 L320.8 282.7 L318.9 280.9 L313.4 275.3 L311.5 273.4 L293.9 273.4 L292.0 275.3 L286.4 280.9 L284.6 282.7 L279.0 288.3 L277.1 290.1 L277.1 297.6 L276.2 299.4 L271.6 303.1 L269.7 305.0 L264.1 310.6 L262.3 312.4 L256.7 318.0 L254.9 319.9 L249.3 325.4 L247.4 327.3 L241.9 332.9 L240.0 334.7 L234.4 340.3 L232.6 342.1 L228.9 346.8 L226.1 347.7 L217.7 347.7 L217.7 361.6 L226.1 361.6 L228.9 362.6 L232.6 367.2 L234.4 369.1 L296.6 369.1 L298.5 367.2 L302.2 362.6 L305.0 361.6 L311.5 361.6 L313.4 359.8 L317.1 355.1 L319.9 354.2 L330.1 354.2 L332.9 355.1 L336.6 359.8 L338.4 361.6 L344.0 367.2 L345.9 369.1 L363.5 369.1 L365.4 367.2 L370.9 361.6 L372.8 359.8 L372.8 352.4 L373.7 350.5 L376.5 347.7 L379.3 346.8 L389.5 346.8 L392.3 347.7 L395.1 350.5 L396.0 352.4 L396.0 359.8 L397.9 361.6 L402.5 365.4 L403.4 367.2 L403.4 374.6 L405.3 376.5 L422.9 376.5 L424.8 374.6 L424.8 367.2 L425.7 365.4 L430.4 361.6 L432.2 359.8 L435.9 355.1 L438.7 354.2 L441.5 354.2 L444.3 355.1 L448.0 359.8 L449.9 361.6 L454.5 365.4 L455.4 367.2 L455.4 374.6 L457.3 376.5 L474.9 376.5 L476.8 374.6 L482.4 369.1 L484.2 367.2 L489.8 361.6 L491.6 359.8 L491.6 352.4 L492.6 350.5 L497.2 346.8 L499.1 344.9 L502.8 340.3 L505.6 339.4 L508.4 339.4 L511.1 340.3 L514.9 344.9 L516.7 346.8 L521.4 350.5 L522.3 352.4 L522.3 359.8 L524.1 361.6 L529.7 367.2 L531.6 369.1 L538.1 369.1 L540.9 370.0 L544.6 374.6 L546.4 376.5 L564.1 376.5 L565.9 374.6 L565.9 367.2 L566.9 365.4 L571.5 361.6 L573.4 359.8 L577.1 355.1 L579.9 354.2 L590.1 354.2 L592.9 355.1 L595.6 357.9 L596.6 359.8 L596.6 367.2 L598.4 369.1 L616.1 369.1 L617.9 367.2 L617.9 352.4 L618.9 350.5 L623.5 346.8 L625.4 344.9 L629.1 340.3 L631.9 339.4 L634.6 339.4 L637.4 340.3 L641.1 344.9 L643.0 346.8 L647.6 350.5 L648.6 352.4 L648.6 359.8 L650.4 361.6 L656.9 361.6 L659.7 362.6 L663.4 367.2 L665.3 369.1 L668.1 369.1 L669.9 367.2 L673.6 362.6 L676.4 361.6 L682.9 361.6 L684.8 359.8 L690.4 354.2 L692.2 352.4 L695.9 347.7 L698.7 346.8 L708.9 346.8 L711.7 347.7 L715.4 352.4 L717.3 354.2 L722.9 359.8 L724.7 361.6 L729.4 365.4 L730.3 367.2 L730.3 374.6 L732.1 376.5 L737.7 382.1 L739.6 383.9 L781.4 383.9 L781.4 355.1 L779.5 354.2 L777.6 354.2 L774.9 351.4 L773.9 349.6 L773.9 342.1 L772.1 340.3 L767.4 336.6 L766.5 334.7 L766.5 327.3 L764.6 325.4 L760.0 321.7 L759.1 319.9 L759.1 305.0 L757.2 303.1 L752.6 299.4 L751.6 297.6 L751.6 290.1 L749.8 288.3 L744.2 282.7 L742.4 280.9 L736.8 275.3 L734.9 273.4 L729.4 267.9 L727.5 266.0 L722.9 262.3 L721.9 260.4 L721.9 251.1 L685.7 251.1 L685.7 260.4 L684.8 262.3 L680.1 266.0 L678.3 267.9 L672.7 273.4 L670.9 275.3 L670.9 282.7 L669.9 284.6 L667.1 287.4 L664.4 288.3 L661.6 288.3 L658.8 287.4 L655.1 282.7 L653.2 280.9 L647.6 275.3 L645.8 273.4 L641.1 269.7 L640.2 267.9 L640.2 251.1 L618.9 251.1 L618.9 267.9 L617.9 269.7 L613.3 273.4 L611.4 275.3 L607.7 279.9 L604.9 280.9 L602.1 280.9 L599.4 279.9 L595.6 275.3 L593.8 273.4 L589.1 269.7 L588.2 267.9 L588.2 251.1 L566.9 251.1 L566.9 260.4 L565.9 262.3 L561.3 266.0 L559.4 267.9 L555.7 272.5 L552.9 273.4 L550.1 273.4 L547.4 272.5 L543.6 267.9 L541.8 266.0 L537.1 262.3 L536.2 260.4 L536.2 251.1 L514.9 251.1 L514.9 267.9 L513.9 269.7 L511.1 272.5 L508.4 273.4 L501.9 273.4 L500.0 275.3 L494.4 280.9 L492.6 282.7 L488.9 287.4 L486.1 288.3 L475.9 288.3 L473.1 287.4 L469.4 282.7 L467.5 280.9 L461.0 280.9 L458.2 279.9 L454.5 275.3 L452.6 273.4 L447.1 267.9 L445.2 266.0 L440.6 262.3 L439.6 260.4 L439.6 251.1 Z" fill-rule="evenodd"/>
  </g>
</svg>
